<svg id="Capa_1" enable-background="new 0 0 512 512" height="512" viewBox="0 0 512 512" width="512" xmlns="http://www.w3.org/2000/svg" xmlns:xlink="http://www.w3.org/1999/xlink"><linearGradient id="SVGID_1_" gradientUnits="userSpaceOnUse" x1="256" x2="256" y1="512" y2="0"><stop offset="0" stop-color="#ffbef9"/><stop offset="1" stop-color="#fff1ff"/></linearGradient><linearGradient id="lg1"><stop offset="0" stop-color="#ff81ff"/><stop offset="1" stop-color="#a93aff"/></linearGradient><linearGradient id="SVGID_2_" gradientUnits="userSpaceOnUse" x1="138.477" x2="138.477" xlink:href="#lg1" y1="398.454" y2="108.892"/><linearGradient id="SVGID_5_" gradientUnits="userSpaceOnUse" x1="300.971" x2="300.971" xlink:href="#lg1" y1="398.454" y2="108.892"/><g><circle cx="256" cy="256" fill="url(#SVGID_1_)" r="256"/><g><g fill="url(#SVGID_2_)"><path d="m111.494 184.047h53.965c4.971 0 8.994-4.023 8.994-8.994v-53.965c0-4.971-4.023-8.994-8.994-8.994h-53.965c-4.971 0-8.994 4.023-8.994 8.994v53.965c0 4.971 4.023 8.994 8.994 8.994z"/><path d="m111.494 291.977h53.965c4.971 0 8.994-4.023 8.994-8.994v-53.965c0-4.971-4.023-8.994-8.994-8.994h-53.965c-4.971 0-8.994 4.023-8.994 8.994v53.965c0 4.971 4.023 8.994 8.994 8.994z"/><path d="m111.494 399.906h53.965c4.971 0 8.994-4.023 8.994-8.994v-53.965c0-4.971-4.023-8.994-8.994-8.994h-53.965c-4.971 0-8.994 4.023-8.994 8.994v53.965c0 4.971 4.023 8.994 8.994 8.994z"/></g><path d="m400.506 112.094h-199.07c-4.971 0-8.994 4.023-8.994 8.994v53.965c0 4.971 4.023 8.994 8.994 8.994h199.07c4.971 0 8.994-4.023 8.994-8.994v-53.965c0-4.971-4.023-8.994-8.994-8.994z" fill="url(#SVGID_5_)"/><path d="m400.506 220.023h-199.07c-4.971 0-8.994 4.023-8.994 8.994v53.965c0 4.971 4.023 8.994 8.994 8.994h199.07c4.971 0 8.994-4.023 8.994-8.994v-53.965c0-4.971-4.023-8.994-8.994-8.994z" fill="url(#SVGID_5_)"/><path d="m400.506 327.953h-199.07c-4.971 0-8.994 4.023-8.994 8.994v53.965c0 4.971 4.023 8.994 8.994 8.994h199.07c4.971 0 8.994-4.023 8.994-8.994v-53.965c0-4.971-4.023-8.994-8.994-8.994z" fill="url(#SVGID_5_)"/></g></g></svg>